<svg width="199" height="40" viewBox="0 0 199 40" fill="none" xmlns="http://www.w3.org/2000/svg">
<path d="M178.952 0H20.0482C8.97589 0 0 8.9543 0 20C0 31.0457 8.97589 40 20.0482 40H178.952C190.024 40 199 31.0457 199 20C199 8.9543 190.024 0 178.952 0Z" fill="#373CF5"></path>
<path d="M17 19.9979C17 26.6161 22.3962 31.9996 29.0282 31.9996C32.1862 31.9996 34.6764 30.8118 36.4238 29.4514L33.8865 26.6255C32.4909 27.6294 30.8601 28.1942 29.0282 28.1942C24.499 28.1942 20.8125 24.5183 20.8125 19.9979C20.8125 15.4776 24.4972 11.8035 29.0282 11.8035C30.2 11.8035 31.3134 12.0531 32.3216 12.4978L33.8338 9.00202C32.3611 8.36028 30.7379 8 29.0282 8C22.3962 8 17 13.3835 17 19.9998V19.9979Z" fill="white"></path>
<path d="M22.6163 19.998C22.6163 23.5257 25.4921 26.3947 29.0282 26.3947C30.3824 26.3947 31.7517 25.9125 32.63 25.2557C32.63 25.2557 30.247 22.6062 30.0401 22.3792C29.8257 22.4824 29.3931 22.5893 29.0282 22.5893C27.5987 22.5893 26.4307 21.4297 26.4307 19.9998C26.4307 18.57 27.6043 17.3747 29.0357 17.3747C29.4062 17.3747 29.7711 17.461 30.0927 17.6017L31.5974 14.1566C30.8319 13.8339 29.9836 13.6068 29.0282 13.6068C25.4921 13.6068 22.6163 16.474 22.6163 20.0017V19.998Z" fill="white"></path>
<path d="M33.8094 17.5117C34.1386 18.1628 34.4263 19.0522 34.4263 19.9998C34.4263 21.1989 33.9185 22.4973 33.2433 23.3624L35.8163 26.1902C37.2495 24.659 38.2389 22.4373 38.2389 19.9979C38.2389 18.555 37.8777 17.1007 37.2702 15.9017L33.8094 17.5117Z" fill="white"></path>
<path d="M32.7411 16.0931L39.2715 13.0401C38.3066 11.6253 36.99 10.3324 35.6451 9.52179L32.7204 16.0724L32.7411 16.0931Z" fill="white"></path>
<path d="M54.0808 15.6158C54.5359 15.7866 54.9685 16.0436 55.3748 16.3852L54.3178 17.6424C54.0375 17.4266 53.7629 17.2633 53.4921 17.1564C53.2212 17.0475 52.9316 16.995 52.625 16.995C51.993 16.995 51.4946 17.2614 51.1278 17.7925C50.7629 18.3235 50.5786 19.1435 50.5786 20.2506C50.5786 21.3577 50.761 22.1496 51.1278 22.675C51.4927 23.2022 52.0005 23.4649 52.6513 23.4649C52.9936 23.4649 53.3059 23.3993 53.5861 23.2698C53.8664 23.1384 54.1692 22.9527 54.4927 22.7087L55.482 23.9791C55.1303 24.33 54.7033 24.619 54.203 24.8441C53.7027 25.0693 53.1497 25.1819 52.5441 25.1819C51.677 25.1819 50.9228 24.9924 50.2833 24.6152C49.6419 24.2362 49.1435 23.677 48.7861 22.9339C48.4288 22.1908 48.252 21.2977 48.252 20.2525C48.252 19.2073 48.4344 18.3573 48.8012 17.618C49.1661 16.8787 49.672 16.3195 50.3171 15.9367C50.9623 15.5539 51.6958 15.3625 52.5178 15.3625C53.1046 15.3625 53.6256 15.4488 54.0827 15.6196L54.0808 15.6158Z" fill="white"></path>
<path d="M61.5967 15.6158C62.0518 15.7866 62.4844 16.0436 62.8907 16.3852L61.8337 17.6424C61.5534 17.4266 61.2788 17.2633 61.008 17.1564C60.7371 17.0475 60.4475 16.995 60.1409 16.995C59.5089 16.995 59.0105 17.2614 58.6437 17.7925C58.2788 18.3235 58.0945 19.1435 58.0945 20.2506C58.0945 21.3577 58.2769 22.1496 58.6437 22.675C59.0086 23.2022 59.5164 23.4649 60.1672 23.4649C60.5095 23.4649 60.8217 23.3993 61.102 23.2698C61.3822 23.1384 61.6851 22.9527 62.0086 22.7087L62.9979 23.9791C62.6462 24.33 62.2192 24.619 61.7189 24.8441C61.2186 25.0693 60.6656 25.1819 60.06 25.1819C59.1929 25.1819 58.4387 24.9924 57.7992 24.6152C57.1578 24.2362 56.6594 23.677 56.302 22.9339C55.9446 22.1908 55.7678 21.2977 55.7678 20.2525C55.7678 19.2073 55.9503 18.3573 56.3171 17.618C56.682 16.8787 57.1879 16.3195 57.833 15.9367C58.4782 15.5539 59.2117 15.3625 60.0337 15.3625C60.6205 15.3625 61.1415 15.4488 61.5985 15.6196L61.5967 15.6158Z" fill="white"></path>
<path d="M66.2067 15.5895V24.953H63.9854V15.5895H66.2067Z" fill="white"></path>
<path d="M75.564 24.9511L72.8556 17.6968C72.9459 18.4079 73.0154 19.0366 73.0662 19.5807C73.1151 20.1268 73.1415 20.7723 73.1415 21.5191V24.9511H71.1647V15.5877H73.9277L76.7038 22.857C76.5045 21.6223 76.4067 20.4608 76.4067 19.3706V15.5877H78.3966V24.9511H75.564Z" fill="white"></path>
<path d="M82.3634 15.5895V24.953H80.1421V15.5895H82.3634Z" fill="white"></path>
<path d="M89.5069 15.6158C89.9621 15.7866 90.3947 16.0436 90.801 16.3852L89.7439 17.6424C89.4637 17.4266 89.1891 17.2633 88.9182 17.1564C88.6474 17.0475 88.3577 16.995 88.0511 16.995C87.4192 16.995 86.9207 17.2614 86.5539 17.7925C86.1891 18.3235 86.0047 19.1435 86.0047 20.2506C86.0047 21.3577 86.1872 22.1496 86.5539 22.675C86.9188 23.2022 87.4267 23.4649 88.0775 23.4649C88.4198 23.4649 88.732 23.3993 89.0122 23.2698C89.2925 23.1384 89.5953 22.9527 89.9188 22.7087L90.9082 23.9791C90.5564 24.33 90.1295 24.619 89.6292 24.8441C89.1289 25.0693 88.5759 25.1819 87.9702 25.1819C87.1032 25.1819 86.3489 24.9924 85.7094 24.6152C85.0681 24.2362 84.5696 23.677 84.2123 22.9339C83.8549 22.1908 83.6781 21.2977 83.6781 20.2525C83.6781 19.2073 83.8605 18.3573 84.2273 17.618C84.5922 16.8787 85.0982 16.3195 85.7433 15.9367C86.3884 15.5539 87.122 15.3625 87.9439 15.3625C88.5307 15.3625 89.0518 15.4488 89.5088 15.6196L89.5069 15.6158Z" fill="white"></path>
<path d="M97.653 15.5895L97.4236 17.1695H94.1189V19.4118H97.0041V20.9655H94.1189V23.3561H97.653V24.9511H91.8976V15.5877H97.653V15.5895Z" fill="white"></path>
<path d="M107.625 15.6158C108.081 15.7866 108.513 16.0436 108.919 16.3852L107.862 17.6424C107.582 17.4266 107.308 17.2633 107.037 17.1564C106.766 17.0475 106.476 16.995 106.17 16.995C105.538 16.995 105.039 17.2614 104.672 17.7925C104.308 18.3235 104.123 19.1435 104.123 20.2506C104.123 21.3577 104.306 22.1496 104.672 22.675C105.037 23.2022 105.545 23.4649 106.196 23.4649C106.538 23.4649 106.851 23.3993 107.131 23.2698C107.411 23.1384 107.714 22.9527 108.037 22.7087L109.027 23.9791C108.675 24.33 108.248 24.619 107.748 24.8441C107.247 25.0693 106.694 25.1819 106.089 25.1819C105.222 25.1819 104.467 24.9924 103.828 24.6152C103.187 24.2362 102.688 23.677 102.331 22.9339C101.973 22.1908 101.797 21.2977 101.797 20.2525C101.797 19.2073 101.979 18.3573 102.346 17.618C102.711 16.8787 103.217 16.3195 103.862 15.9367C104.507 15.5539 105.24 15.3625 106.062 15.3625C106.649 15.3625 107.17 15.4488 107.627 15.6196L107.625 15.6158Z" fill="white"></path>
<path d="M116.659 16.6422C117.404 17.4979 117.776 18.7044 117.776 20.2637C117.776 21.2808 117.607 22.1608 117.269 22.8983C116.93 23.6376 116.443 24.2024 115.805 24.5946C115.17 24.9867 114.412 25.1819 113.537 25.1819C112.662 25.1819 111.906 24.9886 111.276 24.6002C110.644 24.2136 110.159 23.6526 109.82 22.9189C109.482 22.1852 109.313 21.2995 109.313 20.2637C109.313 19.228 109.482 18.3817 109.82 17.6424C110.159 16.903 110.644 16.3382 111.276 15.9461C111.908 15.5539 112.662 15.3587 113.537 15.3587C114.872 15.3587 115.914 15.7866 116.659 16.6422ZM111.737 14.7508L110.966 13.8726L112.888 12.1294H114.188L116.097 13.8726L115.339 14.7508L113.537 13.6155L111.735 14.7508H111.737ZM112.109 17.7568C111.797 18.2747 111.643 19.1097 111.643 20.2637C111.643 21.4178 111.801 22.2546 112.117 22.7763C112.433 23.2979 112.907 23.5606 113.539 23.5606C114.171 23.5606 114.669 23.3017 114.982 22.7838C115.294 22.2659 115.448 21.4253 115.448 20.2637C115.448 19.1022 115.29 18.2635 114.974 17.7512C114.658 17.2371 114.18 16.9819 113.539 16.9819C112.897 16.9819 112.422 17.2408 112.109 17.7587V17.7568Z" fill="white"></path>
<path d="M125.048 15.5895L124.832 17.2915H122.516V24.9511H120.295V17.2915H117.871V15.5895H125.048Z" fill="white"></path>
<path d="M131.697 15.5895L131.467 17.1695H128.163V19.4118H131.048V20.9655H128.163V23.3561H131.697V24.9511H125.941V15.5877H131.697V15.5895Z" fill="white"></path>
<path d="M142.429 16.5822C143.319 17.2446 143.763 18.4586 143.763 20.2225C143.763 21.9863 143.33 23.1835 142.463 23.8909C141.596 24.5983 140.473 24.9511 139.09 24.9511H136.273V15.5877H138.887C140.358 15.5877 141.539 15.9179 142.429 16.5803V16.5822ZM138.494 17.1976V23.3449H139.226C139.958 23.3449 140.512 23.1178 140.892 22.6618C141.272 22.2077 141.46 21.3934 141.46 20.2225C141.46 19.4212 141.366 18.8001 141.176 18.3573C140.986 17.9163 140.729 17.6123 140.405 17.4453C140.08 17.2783 139.679 17.1958 139.2 17.1958H138.496L138.494 17.1976Z" fill="white"></path>
<path d="M146.661 14.914C146.877 15.1204 146.986 15.3831 146.986 15.6984C146.986 15.8691 146.956 16.0455 146.898 16.2256C146.84 16.4058 146.738 16.6497 146.593 16.9556L145.726 18.7251H144.63L145.198 16.6178C144.863 16.3833 144.697 16.0736 144.697 15.6852C144.697 15.3794 144.808 15.1223 145.028 14.9159C145.249 14.7095 145.523 14.6044 145.849 14.6044C146.174 14.6044 146.445 14.7076 146.661 14.9159V14.914Z" fill="white"></path>
<path d="M152.919 24.9511L152.432 22.9377H149.697L149.223 24.9511H146.921L149.751 15.5877H152.447L155.277 24.9511H152.919ZM152.052 21.3296L151.062 17.1958L150.073 21.3296H152.052Z" fill="white"></path>
<path d="M162.018 15.5895V17.2652L157.943 23.1835H162.086L161.87 24.953H155.328V23.2904L159.485 17.3046H155.748V15.5895H162.018Z" fill="white"></path>
<path d="M170.388 21.8437C170.388 22.4836 170.251 23.0559 169.974 23.5588C169.7 24.0635 169.286 24.4595 168.735 24.7484C168.184 25.0374 167.512 25.18 166.717 25.18C165.524 25.18 164.618 24.8779 163.995 24.2756C163.373 23.6714 163.06 22.8607 163.06 21.8437V15.5877H165.282V21.748C165.282 22.3522 165.396 22.8007 165.628 23.0915C165.857 23.3843 166.222 23.5306 166.719 23.5306C167.215 23.5306 167.591 23.3843 167.823 23.0915C168.052 22.7988 168.169 22.3503 168.169 21.748V15.5877H170.39V21.8437H170.388Z" fill="white"></path>
<path d="M175.1 21.3708H174.233V24.9511H172.011V15.5877H175.085C176.366 15.5877 177.331 15.8222 177.976 16.2895C178.621 16.7586 178.944 17.4735 178.944 18.438C178.944 19.0422 178.8 19.5432 178.512 19.9447C178.222 20.3463 177.767 20.6859 177.144 20.9655L179.527 24.9511H177.022L175.1 21.3708ZM174.233 19.8434H175.168C175.664 19.8434 176.037 19.7308 176.285 19.5057C176.533 19.2805 176.657 18.924 176.657 18.438C176.657 17.9876 176.524 17.6592 176.258 17.451C175.991 17.2446 175.583 17.1395 175.032 17.1395H174.233V19.8434Z" fill="white"></path>
</svg>