<svg width="849" height="277" viewBox="0 0 849 277" fill="none" xmlns="http://www.w3.org/2000/svg">
<path d="M42.6 168C41.2667 168 40.0667 167.533 39 166.6C38.0667 165.667 37.6 164.467 37.6 163V90.2H22.4C20.9333 90.2 19.7333 89.7333 18.8 88.8C17.8667 87.8667 17.4 86.6667 17.4 85.2V69C17.4 67.5333 17.8667 66.3333 18.8 65.4C19.7333 64.4667 20.9333 64 22.4 64H37.6V57.6C37.6 48.5333 39.3333 41.2667 42.8 35.8C46.4 30.2 51.4667 26.2 58 23.8C64.5333 21.2667 72.3333 20 81.4 20H97C98.3333 20 99.4667 20.4667 100.4 21.4C101.467 22.3333 102 23.5333 102 25V41.2C102 42.6667 101.467 43.8667 100.4 44.8C99.4667 45.7333 98.3333 46.2 97 46.2H83C78.4667 46.2 75.2667 47.2667 73.4 49.4C71.6667 51.5333 70.8 54.6 70.8 58.6V64H95C96.3333 64 97.4667 64.4667 98.4 65.4C99.4667 66.3333 100 67.5333 100 69V85.2C100 86.6667 99.4667 87.8667 98.4 88.8C97.4667 89.7333 96.3333 90.2 95 90.2H70.8V163C70.8 164.467 70.3333 165.667 69.4 166.6C68.4667 167.533 67.2667 168 65.8 168H42.6ZM150.909 170C135.176 170 122.643 165.733 113.309 157.2C103.976 148.667 99.1094 136 98.7094 119.2C98.7094 118.267 98.7094 117.067 98.7094 115.6C98.7094 114.133 98.7094 113 98.7094 112.2C99.1094 101.667 101.443 92.6667 105.709 85.2C110.109 77.6 116.109 71.8667 123.709 68C131.443 64 140.443 62 150.709 62C162.443 62 172.109 64.3333 179.709 69C187.443 73.6667 193.243 80 197.109 88C200.976 96 202.909 105.133 202.909 115.4V120.2C202.909 121.667 202.376 122.867 201.309 123.8C200.376 124.733 199.243 125.2 197.909 125.2H133.909C133.909 125.333 133.909 125.533 133.909 125.8C133.909 126.067 133.909 126.333 133.909 126.6C134.043 130.467 134.709 134 135.909 137.2C137.109 140.4 138.976 142.933 141.509 144.8C144.043 146.667 147.109 147.6 150.709 147.6C153.376 147.6 155.576 147.2 157.309 146.4C159.176 145.467 160.709 144.467 161.909 143.4C163.109 142.2 164.043 141.2 164.709 140.4C165.909 139.067 166.843 138.267 167.509 138C168.309 137.6 169.509 137.4 171.109 137.4H195.909C197.243 137.4 198.309 137.8 199.109 138.6C200.043 139.267 200.443 140.267 200.309 141.6C200.176 143.867 199.043 146.6 196.909 149.8C194.776 153 191.643 156.2 187.509 159.4C183.509 162.467 178.443 165 172.309 167C166.176 169 159.043 170 150.909 170ZM133.909 105.4H167.709V105C167.709 100.733 167.043 97 165.709 93.8C164.509 90.6 162.576 88.1333 159.909 86.4C157.376 84.6667 154.309 83.8 150.709 83.8C147.109 83.8 144.043 84.6667 141.509 86.4C139.109 88.1333 137.243 90.6 135.909 93.8C134.576 97 133.909 100.733 133.909 105V105.4ZM259.659 170C243.926 170 231.393 165.733 222.059 157.2C212.726 148.667 207.859 136 207.459 119.2C207.459 118.267 207.459 117.067 207.459 115.6C207.459 114.133 207.459 113 207.459 112.2C207.859 101.667 210.193 92.6667 214.459 85.2C218.859 77.6 224.859 71.8667 232.459 68C240.193 64 249.193 62 259.459 62C271.193 62 280.859 64.3333 288.459 69C296.193 73.6667 301.993 80 305.859 88C309.726 96 311.659 105.133 311.659 115.4V120.2C311.659 121.667 311.126 122.867 310.059 123.8C309.126 124.733 307.993 125.2 306.659 125.2H242.659C242.659 125.333 242.659 125.533 242.659 125.8C242.659 126.067 242.659 126.333 242.659 126.6C242.793 130.467 243.459 134 244.659 137.2C245.859 140.4 247.726 142.933 250.259 144.8C252.793 146.667 255.859 147.6 259.459 147.6C262.126 147.6 264.326 147.2 266.059 146.4C267.926 145.467 269.459 144.467 270.659 143.4C271.859 142.2 272.793 141.2 273.459 140.4C274.659 139.067 275.593 138.267 276.259 138C277.059 137.6 278.259 137.4 279.859 137.4H304.659C305.993 137.4 307.059 137.8 307.859 138.6C308.793 139.267 309.193 140.267 309.059 141.6C308.926 143.867 307.793 146.6 305.659 149.8C303.526 153 300.393 156.2 296.259 159.4C292.259 162.467 287.193 165 281.059 167C274.926 169 267.793 170 259.659 170ZM242.659 105.4H276.459V105C276.459 100.733 275.793 97 274.459 93.8C273.259 90.6 271.326 88.1333 268.659 86.4C266.126 84.6667 263.059 83.8 259.459 83.8C255.859 83.8 252.793 84.6667 250.259 86.4C247.859 88.1333 245.993 90.6 244.659 93.8C243.326 97 242.659 100.733 242.659 105V105.4ZM359.209 170C352.809 170 347.009 169 341.809 167C336.743 164.867 332.343 161.8 328.609 157.8C325.009 153.667 322.209 148.733 320.209 143C318.209 137.133 317.076 130.467 316.809 123C316.676 120.333 316.609 118 316.609 116C316.609 113.867 316.676 111.533 316.809 109C317.076 101.8 318.209 95.3333 320.209 89.6C322.209 83.8667 325.009 78.9333 328.609 74.8C332.209 70.6667 336.609 67.5333 341.809 65.4C347.009 63.1333 352.809 62 359.209 62C365.876 62 371.609 63.1333 376.409 65.4C381.209 67.5333 385.276 70.3333 388.609 73.8V31C388.609 29.5333 389.076 28.3333 390.009 27.4C390.943 26.4667 392.143 26 393.609 26H418.009C419.343 26 420.476 26.4667 421.409 27.4C422.476 28.3333 423.009 29.5333 423.009 31V163C423.009 164.467 422.476 165.667 421.409 166.6C420.476 167.533 419.343 168 418.009 168H395.409C393.943 168 392.743 167.533 391.809 166.6C390.876 165.667 390.409 164.467 390.409 163V156.6C387.209 160.467 383.076 163.667 378.009 166.2C372.943 168.733 366.676 170 359.209 170ZM370.009 143.2C374.543 143.2 378.076 142.267 380.609 140.4C383.276 138.4 385.209 135.867 386.409 132.8C387.743 129.733 388.476 126.4 388.609 122.8C388.743 120.133 388.809 117.6 388.809 115.2C388.809 112.8 388.743 110.333 388.609 107.8C388.476 104.467 387.743 101.4 386.409 98.6C385.076 95.6667 383.076 93.3333 380.409 91.6C377.743 89.7333 374.276 88.8 370.009 88.8C365.609 88.8 362.076 89.7333 359.409 91.6C356.876 93.4667 355.076 96 354.009 99.2C352.943 102.4 352.276 105.933 352.009 109.8C351.609 113.933 351.609 118.067 352.009 122.2C352.276 126.067 352.943 129.6 354.009 132.8C355.076 136 356.876 138.533 359.409 140.4C362.076 142.267 365.609 143.2 370.009 143.2Z" fill="#704BF7"/>
<path d="M484.381 170C474.515 170 465.781 168.2 458.181 164.6C450.581 161 444.515 155.8 439.981 149C435.581 142.067 433.181 133.8 432.781 124.2C432.648 122.067 432.581 119.4 432.581 116.2C432.581 112.867 432.648 110.133 432.781 108C433.181 98.2667 435.581 90 439.981 83.2C444.381 76.2667 450.381 71 457.981 67.4C465.715 63.8 474.515 62 484.381 62C493.581 62 501.448 63.3333 507.981 66C514.515 68.5333 519.848 71.7333 523.981 75.6C528.115 79.4667 531.181 83.4667 533.181 87.6C535.315 91.6 536.448 95.1333 536.581 98.2C536.715 99.5333 536.248 100.733 535.181 101.8C534.115 102.733 532.915 103.2 531.581 103.2H506.181C504.715 103.2 503.581 102.867 502.781 102.2C501.981 101.533 501.248 100.533 500.581 99.2C498.981 95.0667 496.915 92.1333 494.381 90.4C491.981 88.6667 488.848 87.8 484.981 87.8C479.648 87.8 475.515 89.5333 472.581 93C469.781 96.4667 468.248 101.8 467.981 109C467.848 114.333 467.848 119.067 467.981 123.2C468.248 130.533 469.781 135.867 472.581 139.2C475.515 142.533 479.648 144.2 484.981 144.2C489.115 144.2 492.381 143.333 494.781 141.6C497.181 139.867 499.115 136.933 500.581 132.8C501.248 131.467 501.981 130.467 502.781 129.8C503.581 129.133 504.715 128.8 506.181 128.8H531.581C532.915 128.8 534.115 129.333 535.181 130.4C536.248 131.333 536.715 132.467 536.581 133.8C536.448 136.067 535.781 138.733 534.581 141.8C533.381 144.733 531.515 147.867 528.981 151.2C526.448 154.533 523.115 157.667 518.981 160.6C514.981 163.4 510.115 165.667 504.381 167.4C498.648 169.133 491.981 170 484.381 170ZM575.75 170C568.55 170 562.083 168.667 556.35 166C550.75 163.2 546.283 159.467 542.95 154.8C539.617 150.133 537.95 144.867 537.95 139C537.95 129.533 541.817 122.067 549.55 116.6C557.283 111 567.55 107.2 580.35 105.2L605.35 101.4V98.6C605.35 93.8 604.35 90.1333 602.35 87.6C600.35 85.0667 596.683 83.8 591.35 83.8C587.617 83.8 584.55 84.5333 582.15 86C579.883 87.4667 578.083 89.4667 576.75 92C575.55 93.7333 573.883 94.6 571.75 94.6H549.35C547.883 94.6 546.75 94.2 545.95 93.4C545.15 92.4667 544.817 91.4 544.95 90.2C544.95 87.8 545.817 85.0667 547.55 82C549.417 78.8 552.217 75.6667 555.95 72.6C559.683 69.5333 564.483 67 570.35 65C576.217 63 583.283 62 591.55 62C600.217 62 607.617 63 613.75 65C619.883 67 624.817 69.8 628.55 73.4C632.417 77 635.283 81.2667 637.15 86.2C639.017 91 639.95 96.3333 639.95 102.2V163C639.95 164.467 639.417 165.667 638.35 166.6C637.417 167.533 636.283 168 634.95 168H611.75C610.283 168 609.083 167.533 608.15 166.6C607.217 165.667 606.75 164.467 606.75 163V156C605.017 158.533 602.683 160.867 599.75 163C596.817 165.133 593.35 166.8 589.35 168C585.483 169.333 580.95 170 575.75 170ZM585.15 147.2C589.017 147.2 592.483 146.4 595.55 144.8C598.75 143.067 601.217 140.467 602.95 137C604.817 133.4 605.75 128.933 605.75 123.6V120.8L588.75 123.8C582.483 124.867 577.883 126.533 574.95 128.8C572.15 130.933 570.75 133.467 570.75 136.4C570.75 138.667 571.417 140.6 572.75 142.2C574.083 143.8 575.817 145.067 577.95 146C580.083 146.8 582.483 147.2 585.15 147.2ZM695.319 170C686.652 170 679.252 169.067 673.119 167.2C667.119 165.2 662.185 162.8 658.319 160C654.585 157.2 651.785 154.333 649.919 151.4C648.052 148.333 647.052 145.733 646.919 143.6C646.785 142.133 647.252 140.933 648.319 140C649.385 138.933 650.519 138.4 651.719 138.4H674.519C674.919 138.4 675.252 138.467 675.519 138.6C675.785 138.733 676.185 139 676.719 139.4C678.452 140.333 680.185 141.533 681.919 143C683.652 144.333 685.652 145.533 687.919 146.6C690.185 147.667 692.919 148.2 696.119 148.2C699.852 148.2 702.985 147.467 705.519 146C708.052 144.533 709.319 142.333 709.319 139.4C709.319 137.267 708.719 135.533 707.519 134.2C706.319 132.733 703.852 131.333 700.119 130C696.519 128.667 691.052 127.333 683.719 126C676.785 124.4 670.719 122.333 665.519 119.8C660.319 117.133 656.319 113.733 653.519 109.6C650.719 105.333 649.319 100.2 649.319 94.2C649.319 88.8667 651.052 83.7333 654.519 78.8C657.985 73.8667 663.052 69.8667 669.719 66.8C676.385 63.6 684.585 62 694.319 62C702.052 62 708.719 62.9333 714.319 64.8C720.052 66.5333 724.852 68.8 728.719 71.6C732.719 74.4 735.719 77.2667 737.719 80.2C739.719 83.1333 740.785 85.8 740.919 88.2C741.052 89.5333 740.652 90.7333 739.719 91.8C738.785 92.7333 737.719 93.2 736.519 93.2H715.719C715.185 93.2 714.652 93.1333 714.119 93C713.585 92.7333 713.119 92.4667 712.719 92.2C711.119 91.4 709.519 90.3333 707.919 89C706.319 87.6667 704.452 86.4667 702.319 85.4C700.185 84.3333 697.519 83.8 694.319 83.8C690.719 83.8 687.919 84.6 685.919 86.2C683.919 87.8 682.919 89.8667 682.919 92.4C682.919 94.1333 683.452 95.7333 684.519 97.2C685.719 98.6667 688.052 100 691.519 101.2C695.119 102.4 700.652 103.733 708.119 105.2C717.319 106.667 724.652 109.067 730.119 112.4C735.585 115.6 739.452 119.4 741.719 123.8C743.985 128.067 745.119 132.6 745.119 137.4C745.119 143.8 743.185 149.467 739.319 154.4C735.585 159.333 729.985 163.2 722.519 166C715.052 168.667 705.985 170 695.319 170ZM805.68 168C797.146 168 789.746 166.667 783.48 164C777.346 161.2 772.613 156.933 769.28 151.2C765.946 145.333 764.28 137.8 764.28 128.6V90.2H748.68C747.213 90.2 745.946 89.7333 744.88 88.8C743.946 87.8667 743.48 86.6667 743.48 85.2V69C743.48 67.5333 743.946 66.3333 744.88 65.4C745.946 64.4667 747.213 64 748.68 64H764.28V31C764.28 29.5333 764.746 28.3333 765.68 27.4C766.746 26.4667 767.946 26 769.28 26H792.48C793.946 26 795.146 26.4667 796.08 27.4C797.013 28.3333 797.48 29.5333 797.48 31V64H822.48C823.946 64 825.146 64.4667 826.08 65.4C827.013 66.3333 827.48 67.5333 827.48 69V85.2C827.48 86.6667 827.013 87.8667 826.08 88.8C825.146 89.7333 823.946 90.2 822.48 90.2H797.48V125.8C797.48 130.333 798.346 133.933 800.08 136.6C801.813 139.267 804.746 140.6 808.88 140.6H824.28C825.746 140.6 826.946 141.067 827.88 142C828.813 142.933 829.28 144.133 829.28 145.6V163C829.28 164.467 828.813 165.667 827.88 166.6C826.946 167.533 825.746 168 824.28 168H805.68Z" fill="#E8E7FF"/>
<path d="M43.52 246C43.0933 246 42.72 245.84 42.4 245.52C42.08 245.2 41.92 244.827 41.92 244.4C41.92 244.133 41.9733 243.84 42.08 243.52L62.32 191.6C62.5333 191.067 62.8 190.667 63.12 190.4C63.4933 190.133 64 190 64.64 190H67.36C68 190 68.48 190.133 68.8 190.4C69.1733 190.667 69.4667 191.067 69.68 191.6L89.92 243.52C90.0267 243.84 90.08 244.133 90.08 244.4C90.08 244.827 89.92 245.2 89.6 245.52C89.28 245.84 88.9067 246 88.48 246H86.88C86.3467 246 85.9467 245.867 85.68 245.6C85.4133 245.28 85.2267 245.013 85.12 244.8L80.16 232H51.84L46.88 244.8C46.8267 245.013 46.64 245.28 46.32 245.6C46.0533 245.867 45.6533 246 45.12 246H43.52ZM53.76 227.2H78.24L66 195.68L53.76 227.2ZM97.3113 246C96.7779 246 96.3513 245.84 96.0313 245.52C95.7113 245.2 95.5513 244.773 95.5513 244.24V191.76C95.5513 191.227 95.7113 190.8 96.0313 190.48C96.3513 190.16 96.7779 190 97.3113 190H98.8313C99.3646 190 99.7913 190.16 100.111 190.48C100.431 190.8 100.591 191.227 100.591 191.76V244.24C100.591 244.773 100.431 245.2 100.111 245.52C99.7913 245.84 99.3646 246 98.8313 246H97.3113ZM140.414 246.8C137.641 246.8 135.241 246.427 133.214 245.68C131.241 244.933 129.614 244.053 128.334 243.04C127.054 241.973 126.094 240.933 125.454 239.92C124.868 238.907 124.548 238.133 124.494 237.6C124.441 237.013 124.628 236.587 125.054 236.32C125.481 236 125.881 235.84 126.254 235.84H127.454C127.774 235.84 128.041 235.893 128.254 236C128.521 236.107 128.841 236.4 129.214 236.88C129.908 237.787 130.708 238.667 131.614 239.52C132.521 240.32 133.668 240.96 135.054 241.44C136.494 241.92 138.281 242.16 140.414 242.16C143.614 242.16 146.254 241.547 148.334 240.32C150.414 239.093 151.454 237.28 151.454 234.88C151.454 233.387 151.028 232.187 150.174 231.28C149.374 230.373 147.988 229.573 146.014 228.88C144.041 228.187 141.374 227.467 138.014 226.72C134.654 225.92 132.068 224.96 130.254 223.84C128.494 222.72 127.294 221.44 126.654 220C126.014 218.507 125.694 216.907 125.694 215.2C125.694 213.333 126.228 211.52 127.294 209.76C128.361 207.947 129.934 206.48 132.014 205.36C134.148 204.187 136.814 203.6 140.014 203.6C142.628 203.6 144.841 203.947 146.654 204.64C148.521 205.333 150.041 206.187 151.214 207.2C152.388 208.16 153.241 209.12 153.774 210.08C154.361 211.04 154.681 211.813 154.734 212.4C154.788 212.933 154.628 213.36 154.254 213.68C153.881 214 153.454 214.16 152.974 214.16H151.774C151.348 214.16 151.001 214.08 150.734 213.92C150.468 213.707 150.228 213.44 150.014 213.12C149.481 212.267 148.841 211.467 148.094 210.72C147.348 209.973 146.334 209.387 145.054 208.96C143.828 208.48 142.148 208.24 140.014 208.24C136.814 208.24 134.441 208.907 132.894 210.24C131.348 211.52 130.574 213.173 130.574 215.2C130.574 216.373 130.894 217.413 131.534 218.32C132.174 219.173 133.374 219.973 135.134 220.72C136.894 221.413 139.454 222.16 142.814 222.96C146.228 223.707 148.921 224.64 150.894 225.76C152.868 226.827 154.254 228.107 155.054 229.6C155.908 231.093 156.334 232.853 156.334 234.88C156.334 237.013 155.721 238.987 154.494 240.8C153.321 242.613 151.534 244.08 149.134 245.2C146.788 246.267 143.881 246.8 140.414 246.8ZM164.429 246C163.896 246 163.469 245.84 163.149 245.52C162.829 245.2 162.669 244.773 162.669 244.24V190.96C162.669 190.427 162.829 190 163.149 189.68C163.469 189.36 163.896 189.2 164.429 189.2H165.789C166.323 189.2 166.749 189.36 167.069 189.68C167.389 190 167.549 190.427 167.549 190.96V209.92C168.989 208.053 170.723 206.533 172.749 205.36C174.829 204.187 177.576 203.6 180.989 203.6C184.616 203.6 187.629 204.4 190.029 206C192.483 207.547 194.296 209.68 195.469 212.4C196.696 215.067 197.309 218.107 197.309 221.52V244.24C197.309 244.773 197.149 245.2 196.829 245.52C196.509 245.84 196.083 246 195.549 246H194.189C193.656 246 193.229 245.84 192.909 245.52C192.589 245.2 192.429 244.773 192.429 244.24V221.92C192.429 217.653 191.389 214.32 189.309 211.92C187.229 209.467 184.189 208.24 180.189 208.24C176.403 208.24 173.336 209.467 170.989 211.92C168.696 214.32 167.549 217.653 167.549 221.92V244.24C167.549 244.773 167.389 245.2 167.069 245.52C166.749 245.84 166.323 246 165.789 246H164.429ZM221.695 246.8C217.855 246.8 214.628 246 212.015 244.4C209.455 242.8 207.482 240.613 206.095 237.84C204.762 235.067 204.042 231.973 203.935 228.56C203.882 227.76 203.855 226.64 203.855 225.2C203.855 223.76 203.882 222.64 203.935 221.84C204.042 218.373 204.762 215.28 206.095 212.56C207.482 209.787 209.455 207.6 212.015 206C214.628 204.4 217.855 203.6 221.695 203.6C225.535 203.6 228.735 204.4 231.295 206C233.908 207.6 235.882 209.787 237.215 212.56C238.602 215.28 239.348 218.373 239.455 221.84C239.508 222.64 239.535 223.76 239.535 225.2C239.535 226.64 239.508 227.76 239.455 228.56C239.348 231.973 238.602 235.067 237.215 237.84C235.882 240.613 233.908 242.8 231.295 244.4C228.735 246 225.535 246.8 221.695 246.8ZM221.695 242.16C225.428 242.16 228.468 240.96 230.815 238.56C233.162 236.16 234.415 232.693 234.575 228.16C234.628 227.36 234.655 226.373 234.655 225.2C234.655 224.027 234.628 223.04 234.575 222.24C234.415 217.653 233.162 214.187 230.815 211.84C228.468 209.44 225.428 208.24 221.695 208.24C217.962 208.24 214.922 209.44 212.575 211.84C210.228 214.187 208.975 217.653 208.815 222.24C208.762 223.04 208.735 224.027 208.735 225.2C208.735 226.373 208.762 227.36 208.815 228.16C208.975 232.693 210.228 236.16 212.575 238.56C214.922 240.96 217.962 242.16 221.695 242.16ZM248.304 261.2C247.771 261.2 247.344 261.04 247.024 260.72C246.704 260.4 246.544 259.973 246.544 259.44V206.16C246.544 205.627 246.704 205.2 247.024 204.88C247.344 204.56 247.771 204.4 248.304 204.4H249.664C250.198 204.4 250.624 204.56 250.944 204.88C251.264 205.2 251.424 205.627 251.424 206.16V209.92C252.758 208.107 254.491 206.613 256.624 205.44C258.811 204.213 261.558 203.6 264.864 203.6C268.011 203.6 270.651 204.16 272.784 205.28C274.918 206.347 276.651 207.787 277.984 209.6C279.318 211.413 280.304 213.44 280.944 215.68C281.584 217.92 281.931 220.213 281.984 222.56C282.038 223.36 282.064 224.24 282.064 225.2C282.064 226.16 282.038 227.04 281.984 227.84C281.931 230.187 281.584 232.48 280.944 234.72C280.304 236.96 279.318 238.987 277.984 240.8C276.651 242.613 274.918 244.08 272.784 245.2C270.651 246.267 268.011 246.8 264.864 246.8C261.558 246.8 258.811 246.187 256.624 244.96C254.491 243.733 252.758 242.24 251.424 240.48V259.44C251.424 259.973 251.264 260.4 250.944 260.72C250.624 261.04 250.198 261.2 249.664 261.2H248.304ZM264.384 242.16C267.531 242.16 270.011 241.467 271.824 240.08C273.638 238.693 274.944 236.88 275.744 234.64C276.544 232.4 276.998 230 277.104 227.44C277.158 225.947 277.158 224.453 277.104 222.96C276.998 220.4 276.544 218 275.744 215.76C274.944 213.52 273.638 211.707 271.824 210.32C270.011 208.933 267.531 208.24 264.384 208.24C261.344 208.24 258.891 208.96 257.024 210.4C255.158 211.84 253.771 213.653 252.864 215.84C252.011 217.973 251.531 220.133 251.424 222.32C251.371 223.12 251.344 224.16 251.344 225.44C251.344 226.72 251.371 227.76 251.424 228.56C251.478 230.693 251.958 232.8 252.864 234.88C253.824 236.96 255.238 238.693 257.104 240.08C259.024 241.467 261.451 242.16 264.384 242.16ZM290.789 261.2C290.255 261.2 289.829 261.04 289.509 260.72C289.189 260.4 289.029 259.973 289.029 259.44V206.16C289.029 205.627 289.189 205.2 289.509 204.88C289.829 204.56 290.255 204.4 290.789 204.4H292.149C292.682 204.4 293.109 204.56 293.429 204.88C293.749 205.2 293.909 205.627 293.909 206.16V209.92C295.242 208.107 296.975 206.613 299.109 205.44C301.295 204.213 304.042 203.6 307.349 203.6C310.495 203.6 313.135 204.16 315.269 205.28C317.402 206.347 319.135 207.787 320.469 209.6C321.802 211.413 322.789 213.44 323.429 215.68C324.069 217.92 324.415 220.213 324.469 222.56C324.522 223.36 324.549 224.24 324.549 225.2C324.549 226.16 324.522 227.04 324.469 227.84C324.415 230.187 324.069 232.48 323.429 234.72C322.789 236.96 321.802 238.987 320.469 240.8C319.135 242.613 317.402 244.08 315.269 245.2C313.135 246.267 310.495 246.8 307.349 246.8C304.042 246.8 301.295 246.187 299.109 244.96C296.975 243.733 295.242 242.24 293.909 240.48V259.44C293.909 259.973 293.749 260.4 293.429 260.72C293.109 261.04 292.682 261.2 292.149 261.2H290.789ZM306.869 242.16C310.015 242.16 312.495 241.467 314.309 240.08C316.122 238.693 317.429 236.88 318.229 234.64C319.029 232.4 319.482 230 319.589 227.44C319.642 225.947 319.642 224.453 319.589 222.96C319.482 220.4 319.029 218 318.229 215.76C317.429 213.52 316.122 211.707 314.309 210.32C312.495 208.933 310.015 208.24 306.869 208.24C303.829 208.24 301.375 208.96 299.509 210.4C297.642 211.84 296.255 213.653 295.349 215.84C294.495 217.973 294.015 220.133 293.909 222.32C293.855 223.12 293.829 224.16 293.829 225.44C293.829 226.72 293.855 227.76 293.909 228.56C293.962 230.693 294.442 232.8 295.349 234.88C296.309 236.96 297.722 238.693 299.589 240.08C301.509 241.467 303.935 242.16 306.869 242.16ZM333.193 246C332.66 246 332.233 245.84 331.913 245.52C331.593 245.2 331.433 244.773 331.433 244.24V206.16C331.433 205.627 331.593 205.2 331.913 204.88C332.233 204.56 332.66 204.4 333.193 204.4H334.553C335.086 204.4 335.513 204.56 335.833 204.88C336.153 205.2 336.313 205.627 336.313 206.16V244.24C336.313 244.773 336.153 245.2 335.833 245.52C335.513 245.84 335.086 246 334.553 246H333.193ZM332.313 195.84C331.78 195.84 331.353 195.68 331.033 195.36C330.713 195.04 330.553 194.613 330.553 194.08V191.04C330.553 190.507 330.713 190.08 331.033 189.76C331.353 189.387 331.78 189.2 332.313 189.2H335.353C335.886 189.2 336.313 189.387 336.633 189.76C337.006 190.08 337.193 190.507 337.193 191.04V194.08C337.193 194.613 337.006 195.04 336.633 195.36C336.313 195.68 335.886 195.84 335.353 195.84H332.313ZM347.006 246C346.472 246 346.046 245.84 345.726 245.52C345.406 245.2 345.246 244.773 345.246 244.24V206.16C345.246 205.627 345.406 205.2 345.726 204.88C346.046 204.56 346.472 204.4 347.006 204.4H348.366C348.899 204.4 349.326 204.56 349.646 204.88C349.966 205.2 350.126 205.627 350.126 206.16V209.92C351.566 208.053 353.299 206.533 355.326 205.36C357.406 204.187 360.152 203.6 363.566 203.6C367.192 203.6 370.206 204.4 372.606 206C375.059 207.547 376.872 209.68 378.046 212.4C379.272 215.067 379.886 218.107 379.886 221.52V244.24C379.886 244.773 379.726 245.2 379.406 245.52C379.086 245.84 378.659 246 378.126 246H376.766C376.232 246 375.806 245.84 375.486 245.52C375.166 245.2 375.006 244.773 375.006 244.24V221.92C375.006 217.653 373.966 214.32 371.886 211.92C369.806 209.467 366.766 208.24 362.766 208.24C358.979 208.24 355.912 209.467 353.566 211.92C351.272 214.32 350.126 217.653 350.126 221.92V244.24C350.126 244.773 349.966 245.2 349.646 245.52C349.326 245.84 348.899 246 348.366 246H347.006ZM403.953 263.6C400.54 263.6 397.74 263.147 395.553 262.24C393.42 261.333 391.74 260.213 390.513 258.88C389.34 257.6 388.513 256.293 388.033 254.96C387.553 253.68 387.286 252.64 387.233 251.84C387.18 251.307 387.34 250.853 387.713 250.48C388.086 250.16 388.513 250 388.993 250H390.113C390.54 250 390.913 250.08 391.233 250.24C391.553 250.453 391.82 250.933 392.033 251.68C392.353 252.533 392.86 253.52 393.553 254.64C394.3 255.813 395.446 256.827 396.993 257.68C398.593 258.533 400.78 258.96 403.553 258.96C406.486 258.96 408.94 258.587 410.913 257.84C412.886 257.093 414.38 255.76 415.393 253.84C416.46 251.973 416.993 249.36 416.993 246V240.48C415.66 242.293 413.9 243.813 411.713 245.04C409.58 246.213 406.86 246.8 403.553 246.8C400.46 246.8 397.82 246.24 395.633 245.12C393.5 244 391.766 242.507 390.433 240.64C389.1 238.773 388.113 236.693 387.473 234.4C386.833 232.107 386.486 229.787 386.433 227.44C386.38 225.947 386.38 224.453 386.433 222.96C386.486 220.613 386.833 218.293 387.473 216C388.113 213.707 389.1 211.627 390.433 209.76C391.766 207.893 393.5 206.4 395.633 205.28C397.82 204.16 400.46 203.6 403.553 203.6C406.86 203.6 409.58 204.213 411.713 205.44C413.9 206.667 415.66 208.16 416.993 209.92V206.24C416.993 205.707 417.153 205.28 417.473 204.96C417.793 204.587 418.22 204.4 418.753 204.4H420.033C420.566 204.4 420.993 204.587 421.313 204.96C421.686 205.28 421.873 205.707 421.873 206.24V245.2C421.873 248.613 421.366 251.707 420.353 254.48C419.34 257.253 417.526 259.467 414.913 261.12C412.353 262.773 408.7 263.6 403.953 263.6ZM404.033 242.16C407.073 242.16 409.526 241.44 411.393 240C413.26 238.56 414.62 236.773 415.473 234.64C416.38 232.453 416.886 230.267 416.993 228.08C417.046 227.28 417.073 226.32 417.073 225.2C417.073 224.08 417.046 223.12 416.993 222.32C416.886 220.133 416.38 217.973 415.473 215.84C414.62 213.653 413.26 211.84 411.393 210.4C409.526 208.96 407.073 208.24 404.033 208.24C400.94 208.24 398.46 208.933 396.593 210.32C394.78 211.707 393.473 213.52 392.673 215.76C391.873 218 391.42 220.4 391.313 222.96C391.26 224.453 391.26 225.947 391.313 227.44C391.42 230 391.873 232.4 392.673 234.64C393.473 236.88 394.78 238.693 396.593 240.08C398.46 241.467 400.94 242.16 404.033 242.16ZM459.746 246C456.972 246 454.786 245.413 453.186 244.24C451.586 243.067 450.466 241.467 449.826 239.44C449.186 237.413 448.866 235.147 448.866 232.64V209.04H442.626C442.092 209.04 441.666 208.88 441.346 208.56C441.026 208.24 440.866 207.813 440.866 207.28V206.16C440.866 205.627 441.026 205.2 441.346 204.88C441.666 204.56 442.092 204.4 442.626 204.4H448.866V190.96C448.866 190.427 449.026 190 449.346 189.68C449.666 189.36 450.092 189.2 450.626 189.2H451.986C452.519 189.2 452.946 189.36 453.266 189.68C453.586 190 453.746 190.427 453.746 190.96V204.4H463.666C464.199 204.4 464.626 204.56 464.946 204.88C465.266 205.2 465.426 205.627 465.426 206.16V207.28C465.426 207.813 465.266 208.24 464.946 208.56C464.626 208.88 464.199 209.04 463.666 209.04H453.746V232.32C453.746 235.147 454.199 237.36 455.106 238.96C456.066 240.56 457.746 241.36 460.146 241.36H464.466C464.999 241.36 465.426 241.52 465.746 241.84C466.066 242.16 466.226 242.587 466.226 243.12V244.24C466.226 244.773 466.066 245.2 465.746 245.52C465.426 245.84 464.999 246 464.466 246H459.746ZM485.936 246.8C480.762 246.8 476.656 245.12 473.616 241.76C470.576 238.347 468.842 233.893 468.416 228.4C468.362 227.6 468.336 226.533 468.336 225.2C468.336 223.867 468.362 222.8 468.416 222C468.682 218.373 469.536 215.173 470.976 212.4C472.416 209.627 474.389 207.467 476.896 205.92C479.456 204.373 482.469 203.6 485.936 203.6C489.669 203.6 492.842 204.427 495.456 206.08C498.069 207.733 500.069 210.107 501.456 213.2C502.896 216.293 503.616 219.973 503.616 224.24V225.44C503.616 225.973 503.429 226.4 503.056 226.72C502.736 227.04 502.309 227.2 501.776 227.2H473.296C473.296 227.2 473.296 227.307 473.296 227.52C473.296 227.733 473.296 227.893 473.296 228C473.402 230.4 473.962 232.693 474.976 234.88C475.989 237.013 477.429 238.773 479.296 240.16C481.162 241.493 483.376 242.16 485.936 242.16C488.229 242.16 490.122 241.813 491.616 241.12C493.162 240.427 494.389 239.68 495.296 238.88C496.202 238.027 496.789 237.387 497.056 236.96C497.536 236.267 497.909 235.867 498.176 235.76C498.442 235.6 498.869 235.52 499.456 235.52H500.736C501.216 235.52 501.616 235.68 501.936 236C502.309 236.267 502.469 236.64 502.416 237.12C502.362 237.867 501.936 238.8 501.136 239.92C500.389 240.987 499.296 242.053 497.856 243.12C496.469 244.187 494.762 245.067 492.736 245.76C490.709 246.453 488.442 246.8 485.936 246.8ZM473.296 222.72H498.736V222.4C498.736 219.733 498.229 217.333 497.216 215.2C496.202 213.067 494.736 211.387 492.816 210.16C490.896 208.88 488.602 208.24 485.936 208.24C483.269 208.24 480.976 208.88 479.056 210.16C477.189 211.387 475.749 213.067 474.736 215.2C473.776 217.333 473.296 219.733 473.296 222.4V222.72ZM525.928 246.8C522.194 246.8 519.021 246.08 516.408 244.64C513.794 243.147 511.794 241.013 510.408 238.24C509.074 235.467 508.354 232.187 508.248 228.4C508.194 227.6 508.168 226.533 508.168 225.2C508.168 223.867 508.194 222.8 508.248 222C508.354 218.16 509.074 214.88 510.408 212.16C511.794 209.387 513.794 207.28 516.408 205.84C519.021 204.347 522.194 203.6 525.928 203.6C528.754 203.6 531.181 204 533.208 204.8C535.288 205.547 536.994 206.56 538.328 207.84C539.661 209.067 540.674 210.427 541.368 211.92C542.061 213.413 542.434 214.88 542.488 216.32C542.541 216.853 542.381 217.28 542.008 217.6C541.634 217.92 541.208 218.08 540.728 218.08H539.608C539.074 218.08 538.674 217.973 538.408 217.76C538.194 217.493 537.954 217.04 537.688 216.4C536.568 213.36 535.021 211.253 533.048 210.08C531.128 208.853 528.754 208.24 525.928 208.24C522.301 208.24 519.288 209.36 516.888 211.6C514.541 213.787 513.288 217.387 513.128 222.4C513.021 224.267 513.021 226.133 513.128 228C513.288 233.013 514.541 236.64 516.888 238.88C519.288 241.067 522.301 242.16 525.928 242.16C528.754 242.16 531.128 241.573 533.048 240.4C535.021 239.173 536.568 237.04 537.688 234C537.954 233.36 538.194 232.933 538.408 232.72C538.674 232.453 539.074 232.32 539.608 232.32H540.728C541.208 232.32 541.634 232.48 542.008 232.8C542.381 233.12 542.541 233.547 542.488 234.08C542.434 235.253 542.194 236.427 541.768 237.6C541.341 238.773 540.674 239.92 539.768 241.04C538.914 242.16 537.848 243.147 536.568 244C535.288 244.853 533.741 245.52 531.928 246C530.168 246.533 528.168 246.8 525.928 246.8ZM550.898 246C550.365 246 549.938 245.84 549.618 245.52C549.298 245.2 549.138 244.773 549.138 244.24V190.96C549.138 190.427 549.298 190 549.618 189.68C549.938 189.36 550.365 189.2 550.898 189.2H552.258C552.791 189.2 553.218 189.36 553.538 189.68C553.858 190 554.018 190.427 554.018 190.96V209.92C555.458 208.053 557.191 206.533 559.218 205.36C561.298 204.187 564.045 203.6 567.458 203.6C571.085 203.6 574.098 204.4 576.498 206C578.951 207.547 580.765 209.68 581.938 212.4C583.165 215.067 583.778 218.107 583.778 221.52V244.24C583.778 244.773 583.618 245.2 583.298 245.52C582.978 245.84 582.551 246 582.018 246H580.658C580.125 246 579.698 245.84 579.378 245.52C579.058 245.2 578.898 244.773 578.898 244.24V221.92C578.898 217.653 577.858 214.32 575.778 211.92C573.698 209.467 570.658 208.24 566.658 208.24C562.871 208.24 559.805 209.467 557.458 211.92C555.165 214.32 554.018 217.653 554.018 221.92V244.24C554.018 244.773 553.858 245.2 553.538 245.52C553.218 245.84 552.791 246 552.258 246H550.898ZM594.084 246C593.55 246 593.124 245.84 592.804 245.52C592.484 245.2 592.324 244.773 592.324 244.24V206.16C592.324 205.627 592.484 205.2 592.804 204.88C593.124 204.56 593.55 204.4 594.084 204.4H595.444C595.977 204.4 596.404 204.56 596.724 204.88C597.044 205.2 597.204 205.627 597.204 206.16V209.92C598.644 208.053 600.377 206.533 602.404 205.36C604.484 204.187 607.23 203.6 610.644 203.6C614.27 203.6 617.284 204.4 619.684 206C622.137 207.547 623.95 209.68 625.124 212.4C626.35 215.067 626.964 218.107 626.964 221.52V244.24C626.964 244.773 626.804 245.2 626.484 245.52C626.164 245.84 625.737 246 625.204 246H623.844C623.31 246 622.884 245.84 622.564 245.52C622.244 245.2 622.084 244.773 622.084 244.24V221.92C622.084 217.653 621.044 214.32 618.964 211.92C616.884 209.467 613.844 208.24 609.844 208.24C606.057 208.24 602.99 209.467 600.644 211.92C598.35 214.32 597.204 217.653 597.204 221.92V244.24C597.204 244.773 597.044 245.2 596.724 245.52C596.404 245.84 595.977 246 595.444 246H594.084ZM651.351 246.8C647.511 246.8 644.285 246 641.671 244.4C639.111 242.8 637.138 240.613 635.751 237.84C634.418 235.067 633.698 231.973 633.591 228.56C633.538 227.76 633.511 226.64 633.511 225.2C633.511 223.76 633.538 222.64 633.591 221.84C633.698 218.373 634.418 215.28 635.751 212.56C637.138 209.787 639.111 207.6 641.671 206C644.285 204.4 647.511 203.6 651.351 203.6C655.191 203.6 658.391 204.4 660.951 206C663.565 207.6 665.538 209.787 666.871 212.56C668.258 215.28 669.005 218.373 669.111 221.84C669.165 222.64 669.191 223.76 669.191 225.2C669.191 226.64 669.165 227.76 669.111 228.56C669.005 231.973 668.258 235.067 666.871 237.84C665.538 240.613 663.565 242.8 660.951 244.4C658.391 246 655.191 246.8 651.351 246.8ZM651.351 242.16C655.085 242.16 658.125 240.96 660.471 238.56C662.818 236.16 664.071 232.693 664.231 228.16C664.285 227.36 664.311 226.373 664.311 225.2C664.311 224.027 664.285 223.04 664.231 222.24C664.071 217.653 662.818 214.187 660.471 211.84C658.125 209.44 655.085 208.24 651.351 208.24C647.618 208.24 644.578 209.44 642.231 211.84C639.885 214.187 638.631 217.653 638.471 222.24C638.418 223.04 638.391 224.027 638.391 225.2C638.391 226.373 638.418 227.36 638.471 228.16C638.631 232.693 639.885 236.16 642.231 238.56C644.578 240.96 647.618 242.16 651.351 242.16ZM677.961 246C677.427 246 677.001 245.84 676.681 245.52C676.361 245.2 676.201 244.773 676.201 244.24V190.96C676.201 190.427 676.361 190 676.681 189.68C677.001 189.36 677.427 189.2 677.961 189.2H679.321C679.854 189.2 680.281 189.36 680.601 189.68C680.921 190 681.081 190.427 681.081 190.96V244.24C681.081 244.773 680.921 245.2 680.601 245.52C680.281 245.84 679.854 246 679.321 246H677.961ZM705.929 246.8C702.089 246.8 698.863 246 696.249 244.4C693.689 242.8 691.716 240.613 690.329 237.84C688.996 235.067 688.276 231.973 688.169 228.56C688.116 227.76 688.089 226.64 688.089 225.2C688.089 223.76 688.116 222.64 688.169 221.84C688.276 218.373 688.996 215.28 690.329 212.56C691.716 209.787 693.689 207.6 696.249 206C698.863 204.4 702.089 203.6 705.929 203.6C709.769 203.6 712.969 204.4 715.529 206C718.143 207.6 720.116 209.787 721.449 212.56C722.836 215.28 723.583 218.373 723.689 221.84C723.743 222.64 723.769 223.76 723.769 225.2C723.769 226.64 723.743 227.76 723.689 228.56C723.583 231.973 722.836 235.067 721.449 237.84C720.116 240.613 718.143 242.8 715.529 244.4C712.969 246 709.769 246.8 705.929 246.8ZM705.929 242.16C709.663 242.16 712.703 240.96 715.049 238.56C717.396 236.16 718.649 232.693 718.809 228.16C718.863 227.36 718.889 226.373 718.889 225.2C718.889 224.027 718.863 223.04 718.809 222.24C718.649 217.653 717.396 214.187 715.049 211.84C712.703 209.44 709.663 208.24 705.929 208.24C702.196 208.24 699.156 209.44 696.809 211.84C694.463 214.187 693.209 217.653 693.049 222.24C692.996 223.04 692.969 224.027 692.969 225.2C692.969 226.373 692.996 227.36 693.049 228.16C693.209 232.693 694.463 236.16 696.809 238.56C699.156 240.96 702.196 242.16 705.929 242.16ZM746.219 263.6C742.805 263.6 740.005 263.147 737.819 262.24C735.685 261.333 734.005 260.213 732.779 258.88C731.605 257.6 730.779 256.293 730.299 254.96C729.819 253.68 729.552 252.64 729.499 251.84C729.445 251.307 729.605 250.853 729.979 250.48C730.352 250.16 730.779 250 731.259 250H732.379C732.805 250 733.179 250.08 733.499 250.24C733.819 250.453 734.085 250.933 734.299 251.68C734.619 252.533 735.125 253.52 735.819 254.64C736.565 255.813 737.712 256.827 739.259 257.68C740.859 258.533 743.045 258.96 745.819 258.96C748.752 258.96 751.205 258.587 753.179 257.84C755.152 257.093 756.645 255.76 757.659 253.84C758.725 251.973 759.259 249.36 759.259 246V240.48C757.925 242.293 756.165 243.813 753.979 245.04C751.845 246.213 749.125 246.8 745.819 246.8C742.725 246.8 740.085 246.24 737.899 245.12C735.765 244 734.032 242.507 732.699 240.64C731.365 238.773 730.379 236.693 729.739 234.4C729.099 232.107 728.752 229.787 728.699 227.44C728.645 225.947 728.645 224.453 728.699 222.96C728.752 220.613 729.099 218.293 729.739 216C730.379 213.707 731.365 211.627 732.699 209.76C734.032 207.893 735.765 206.4 737.899 205.28C740.085 204.16 742.725 203.6 745.819 203.6C749.125 203.6 751.845 204.213 753.979 205.44C756.165 206.667 757.925 208.16 759.259 209.92V206.24C759.259 205.707 759.419 205.28 759.739 204.96C760.059 204.587 760.485 204.4 761.019 204.4H762.299C762.832 204.4 763.259 204.587 763.579 204.96C763.952 205.28 764.139 205.707 764.139 206.24V245.2C764.139 248.613 763.632 251.707 762.619 254.48C761.605 257.253 759.792 259.467 757.179 261.12C754.619 262.773 750.965 263.6 746.219 263.6ZM746.299 242.16C749.339 242.16 751.792 241.44 753.659 240C755.525 238.56 756.885 236.773 757.739 234.64C758.645 232.453 759.152 230.267 759.259 228.08C759.312 227.28 759.339 226.32 759.339 225.2C759.339 224.08 759.312 223.12 759.259 222.32C759.152 220.133 758.645 217.973 757.739 215.84C756.885 213.653 755.525 211.84 753.659 210.4C751.792 208.96 749.339 208.24 746.299 208.24C743.205 208.24 740.725 208.933 738.859 210.32C737.045 211.707 735.739 213.52 734.939 215.76C734.139 218 733.685 220.4 733.579 222.96C733.525 224.453 733.525 225.947 733.579 227.44C733.685 230 734.139 232.4 734.939 234.64C735.739 236.88 737.045 238.693 738.859 240.08C740.725 241.467 743.205 242.16 746.299 242.16ZM780.223 261.2C779.796 261.2 779.423 261.04 779.103 260.72C778.783 260.4 778.623 260.027 778.623 259.6C778.623 259.387 778.65 259.147 778.703 258.88C778.81 258.667 778.943 258.373 779.103 258L785.263 243.6L769.983 207.6C769.663 206.8 769.503 206.267 769.503 206C769.503 205.573 769.663 205.2 769.983 204.88C770.303 204.56 770.676 204.4 771.103 204.4H772.783C773.316 204.4 773.716 204.533 773.983 204.8C774.303 205.013 774.516 205.28 774.623 205.6L788.063 237.28L801.823 205.6C801.983 205.28 802.196 205.013 802.463 204.8C802.73 204.533 803.13 204.4 803.663 204.4H805.263C805.69 204.4 806.063 204.56 806.383 204.88C806.703 205.2 806.863 205.573 806.863 206C806.863 206.267 806.703 206.8 806.383 207.6L783.663 260C783.503 260.32 783.29 260.587 783.023 260.8C782.756 261.067 782.356 261.2 781.823 261.2H780.223Z" fill="#E8E7FF"/>
</svg>
