<svg xmlns="http://www.w3.org/2000/svg" xmlns:xlink="http://www.w3.org/1999/xlink" version="1.1" id="Calque_1" x="0px" y="0px" viewBox="0 0 510.1 193.1" style="enable-background:new 0 0 510.1 193.1;" xml:space="preserve">
<style type="text/css">
	.st0{fill:#195ef6;}
	.st1{fill:#005AFF;}
	.st2{fill:#FFFFFF;}
	.st3{clip-path:url(#SVGID_10_);fill:#195ef6;}
	.st4{fill:none;stroke:#1D1D1B;stroke-width:0.25;stroke-miterlimit:10;}
</style>
<g>
	<path class="st0" d="M55.5,110.6c15.3,0,29.1-6.2,39.1-16.2l-15-15c-6.2,6.1-14.6,9.9-24,9.9c-9.4,0-17.9-3.8-24.1-10L16.5,94.4   C26.5,104.4,40.3,110.6,55.5,110.6"/>
	<g>
		<rect x="236.3" y="0.1" class="st2" width="22.1" height="110.5"/>
		<polygon class="st2" points="303.9,110.6 332.3,73.4 360.7,110.6 388.3,110.6 346.2,55.3 388.4,0 360.8,0 332.3,37.2 303.9,0     276.3,0 318.5,55.3 276.3,110.6   "/>
		<polygon class="st2" points="466.2,0 442.5,0 398.5,110.6 422.1,110.6 454.3,29.9 468.8,66.8 454.3,66.8 445.7,88.7 477.7,88.7     486.4,110.6 510.1,110.6   "/>
		<path class="st2" d="M186.7,71.2c14.3-5,24.6-18.5,24.6-34.5c0-20.2-16.4-36.5-36.5-36.5H128v21.8h46.7c8.2,0,14.8,6.6,14.8,14.8    s-6.6,14.8-14.8,14.8H128v59.2H150V73.2h13.9l23.3,37.4h24L186.7,71.2z"/>
		<path class="st2" d="M55.5,0C25.1,0,0.3,24.9,0.3,55.3c0,15.3,6.2,29.1,16.2,39.1l15.1-15.1c-6.2-6.2-10-14.7-10-24.1    c0-18.8,15.1-33.9,34.1-34.1c18.8,0,34.1,15.3,34.1,34.1c0,9.4-3.8,18-10.1,24.1l15,15c10-10,16.3-23.9,16.3-39.1    C110.9,24.9,86,0,55.5,0z"/>
		<rect x="326.8" y="140.8" class="st2" width="10.4" height="52.2"/>
		<polygon class="st2" points="156.7,156.8 140.7,140.8 130.3,140.8 130.3,193 140.7,193 140.7,155.6 156.7,171.6 172.7,155.6     172.7,193 183.2,193 183.2,140.8 172.7,140.8   "/>
		<rect x="203.7" y="140.8" class="st2" width="38.1" height="10.4"/>
		<polygon class="st2" points="214.1,172.1 236.7,172.1 236.7,161.7 203.7,161.7 203.7,193 241.9,193 241.9,182.6 214.1,182.6   "/>
		<polygon class="st2" points="375.3,140.8 354.6,193 365.8,193 380.9,154.9 387.9,172.3 380.8,172.3 376.7,182.6 392,182.6     396.1,193 407.3,193 386.6,140.8   "/>
		<path class="st2" d="M290.7,140.8h-28.2V193h28.2c8.6,0,15.6-7,15.6-15.6v-21C306.3,147.8,299.3,140.8,290.7,140.8z M296,175.8    c0,3.8-3.1,7-7,7h-16.2v-31.6h16.2c3.8,0,7,3.1,7,7V175.8z"/>
	</g>
</g>
</svg>