<svg xmlns="http://www.w3.org/2000/svg" width="115" height="25" viewBox="0 0 115 25">
    <g fill="none" fill-rule="evenodd">
        <path fill="#004B44" d="M20.668 22.467H36.84v2.075H20.668z"/>
        <g fill="#1AAEB7">
            <path d="M10.875 11.062C6.912 10.065 5.93 9.575 5.93 8.105v-.066c0-1.095 1.016-1.96 2.948-1.96s3.93.833 5.962 2.222l2.632-3.726c-2.332-1.83-5.18-2.86-8.528-2.86-4.696 0-8.027 2.697-8.027 6.782v.065c0 4.477 2.981 5.719 7.611 6.88 3.83.963 4.63 1.6 4.63 2.859v.065c0 1.324-1.249 2.124-3.314 2.124-2.615 0-4.78-1.062-6.845-2.729L.017 21.275c2.748 2.418 6.262 3.61 9.743 3.61 4.946 0 8.427-2.516 8.427-6.977v-.081c-.034-3.922-2.665-5.572-7.312-6.765z"/>
            <path fill-rule="nonzero" d="M105.107 6.977c-5.48 0-9.543 4.02-9.543 8.97v.066c0 4.951 4.03 8.905 9.476 8.905 5.48 0 9.543-4.02 9.543-8.97v-.066c0-4.934-4.03-8.905-9.476-8.905zm4.563 9.052c0 2.55-1.699 4.69-4.563 4.69-2.748 0-4.63-2.222-4.63-4.755V15.9c0-2.55 1.699-4.69 4.563-4.69 2.748 0 4.63 2.222 4.63 4.755v.065z"/>
            <path d="M46.283 7.5V6.127c0-1.29.65-1.862 1.799-1.862.85 0 1.549.163 2.265.425V.637c-.916-.294-1.966-.49-3.548-.49-1.765 0-3.114.458-4.03 1.356-.916.899-1.416 2.288-1.416 4.183v1.781h-2.048v4.02h2.065v13.055h4.98V11.487h6.911v13.055h4.98V7.5H46.283zM71.431 6.977c-2.531 0-3.997 1.324-5.146 2.762V7.288h-4.98v17.238h4.98v-9.624c0-2.32 1.216-3.513 3.115-3.513 1.898 0 3.014 1.193 3.014 3.513v9.624h4.98v-11.16c0-3.938-2.199-6.389-5.963-6.389zM88.619 20.719c-2.715 0-4.464-2.124-4.464-4.755V15.9c0-2.55 1.766-4.69 4.264-4.69 1.765 0 2.881.735 3.997 1.896l3.048-3.22c-1.632-1.797-3.697-2.892-7.012-2.892-5.38 0-9.21 4.053-9.21 8.971v.065c0 4.919 3.864 8.906 9.144 8.906 3.514 0 5.48-1.324 7.178-3.154l-2.915-2.892c-1.215 1.127-2.365 1.83-4.03 1.83z"/>
            <path d="M55.46 5.997c1.499 0 2.698-1.193 2.698-2.647 0-1.47-1.216-2.647-2.698-2.647-1.5 0-2.698 1.192-2.698 2.647 0 1.454 1.199 2.647 2.698 2.647zM28.513 2.925c-5.03 0-8.777 3.693-8.777 8.251v.066c0 4.559 3.714 8.202 8.71 8.202 5.03 0 8.777-3.692 8.777-8.251v-.066c0-.833-.133-1.65-.366-2.402l-4.164 2.19c0 .082.017.18.017.261v.066c0 2.336-1.566 4.314-4.197 4.314-2.532 0-4.247-2.043-4.247-4.38v-.065c0-2.336 1.565-4.314 4.197-4.314.6 0 1.165.115 1.665.327l4.214-2.173c-1.516-1.275-3.531-2.026-5.83-2.026z"/>
        </g>
        <path fill="#EB3738" d="M36.19 3.987l-1.848.948-4.214 2.173-.883.457c-1.399.654-1.782.834-2.231.768l.916 2.043c.483.915 1.265 1.144 2.048.768l7.911-4.15V3.12l-1.699.866z"/>
    </g>
</svg>