<!-- <svg xmlns="http://www.w3.org/2000/svg" fill="none" viewBox="0 0 500 500"><path fill="#B04304" d="M295.334 103.333v-40L340.667 90v40l-45.333-26.667ZM250.001 63.333l-45.334-26.666v426.666L250.001 490V63.333Z"/><path fill="#FF5D01" d="m250.001 129.944 45.333-26.667 45.333 26.667-45.333 26.667-45.333-26.667ZM204.667 36.667 250.001 10l45.333 26.667-45.333 26.666-45.334-26.666ZM295.334 63.277l45.333-26.666L386 63.277l-45.333 26.667-45.333-26.667ZM114 223.277l45.333-26.667 45.334 26.667-45.334 26.667L114 223.277ZM250 249.944l-45.333-26.667v53.333L250 249.944Z"/><path fill="#53C68C" d="m250 63.333 45.333-26.666v120L340.667 130V90L386 63.333V170l-90.667 53.333v240L250 490V316.667L159.333 370V250l45.334-26.667v53.334L250 250V63.333Z"/><path fill="#B04304" d="M159.333 250 114 223.334v120L159.333 370V250Z"/></svg> -->
<?xml version="1.0" encoding="utf-8"?>
<svg viewBox="190.6851 156.6694 52.1684 36.3493" width="52.1684" height="36.3493" xmlns="http://www.w3.org/2000/svg">
  <path d="M 203.044 163.597 C 203.044 163.597 202.673 162.185 200.814 163.039 C 200.814 163.039 197.393 173.561 206.167 185.234 C 207.803 187.688 208.769 185.903 208.769 185.903 C 208.769 185.903 237.281 173.643 239.551 172.191 C 240.742 171.429 239.349 170.363 237.321 169.769 C 236.089 169.408 211 164.638 203.044 163.597 Z" style="fill: rgb(225, 161, 97); transform-origin: 220.074px 174.647px;" transform="matrix(0.9396930933, -0.342020004988, 0.342020004988, 0.9396930933, 0.000011758044, 0.00001384275)"/>
  <path d="M 205.59 168.683 C 205.59 168.683 200.356 175.684 210.794 191.29 C 210.794 191.29 208.51 192.95 207.446 191.636 C 206.382 190.32 199.513 179.403 201.669 168.145 C 201.669 168.145 203.875 165.481 205.59 168.683 Z" style="fill: rgb(225, 158, 73); transform-origin: 206.023px 179.624px;" transform="matrix(0.9396930933, -0.342020004988, 0.342020004988, 0.9396930933, -1.37953e-7, 0.000018797899)"/>
  <path d="M 206.036 162.92 C 204.659 163.257 203.538 163.811 204.034 164.781 C 204.529 165.752 203.984 165.801 203.439 167.16 C 202.894 168.52 202.844 168.771 203.637 169.811 C 204.43 170.849 206.115 171.774 205.471 172.744 C 204.827 173.713 203.974 174.472 205.322 175.439 C 206.67 176.406 205.262 176.914 206.067 177.888 C 206.869 178.859 206.568 180.655 207.804 181.14 C 209.04 181.625 208.048 182.016 208.743 182.792 C 209.437 183.566 210.825 183.421 211.964 182.792 C 213.104 182.158 212.806 183.957 213.749 183.811 C 214.691 183.665 215.04 182.256 216.154 181.383 C 217.268 180.509 218.463 178.5 219.7 179.285 C 220.937 180.072 223.168 179.309 223.415 178.306 C 223.663 177.306 224.419 176.238 225.776 177.039 C 227.132 177.84 227.876 177.112 228.768 176.625 C 229.661 176.14 229.386 174.845 230.255 174.781 C 231.125 174.719 233.974 174.397 234.32 173.496 C 234.667 172.598 235.462 173.421 235.51 174.102 C 235.559 174.781 237.198 174.394 237.443 173.082 C 237.688 171.771 238.739 171.614 239.177 171.012 C 239.617 170.409 239.624 168.238 236.798 167.748 C 233.973 167.257 223.86 164.49 219.499 164.15 C 215.137 163.812 209.405 162.095 206.036 162.92 Z" style="fill: rgb(244, 200, 101); transform-origin: 221.213px 173.259px;" transform="matrix(0.9396930933, -0.342020004988, 0.342020004988, 0.9396930933, 0.000009063945, 0.000011286407)"/>
  <path d="M 206.843 174.165 C 205.453 173.542 204.498 170.39 207.81 170.543 C 211.123 170.695 211.485 176.247 206.843 174.165 Z" style="fill: rgb(174, 71, 76); transform-origin: 207.939px 172.586px;" transform="matrix(0.9396930933, -0.342020004988, 0.342020004988, 0.9396930933, 0.000006789079, 0.000013495786)"/>
  <path d="M 211.754 180.203 C 212.44 178.63 216.579 177.169 216.742 180.733 C 216.902 184.297 209.466 185.458 211.754 180.203 Z" style="fill: rgb(174, 71, 76); transform-origin: 214.03px 181.153px;" transform="matrix(0.9396930933, -0.342020004988, 0.342020004988, 0.9396930933, 0.000003618576, 0.000018456439)"/>
  <path d="M 216.632 176.347 C 215.243 175.723 214.288 172.572 217.6 172.724 C 220.912 172.878 221.274 178.427 216.632 176.347 Z" style="fill: rgb(174, 71, 76); transform-origin: 217.728px 174.767px;" transform="matrix(0.9396930933, -0.342020004988, 0.342020004988, 0.9396930933, 0.000006434606, 0.000018350454)"/>
  <path d="M 224.256 172.155 C 222.867 171.532 221.912 168.38 225.223 168.533 C 228.536 168.686 228.898 174.237 224.256 172.155 Z" style="fill: rgb(174, 71, 76); transform-origin: 225.352px 170.576px;" transform="matrix(0.9396930933, -0.342020004988, 0.342020004988, 0.9396930933, 0.000007816359, 0.000018811092)"/>
  <path d="M 219.913 166.321 C 217.301 165.48 217.007 163.992 219.178 163.803 C 221.128 163.634 223.024 163.913 224.214 165.37 C 225.067 166.416 221.851 166.944 219.913 166.321 Z" style="fill: rgb(174, 71, 76); transform-origin: 221.043px 165.174px;" transform="matrix(0.9396930933, -0.342020004988, 0.342020004988, 0.9396930933, 0.000001497299, 0.000012836999)"/>
  <path d="M 197.084 176.068 C 194.198 172.742 195.926 166.737 201.497 164.06 C 207.066 161.384 209.164 163.192 210.249 163.336 C 211.335 163.481 215.384 163.336 218.624 169.847 C 219.217 171.551 217.121 171.438 216.254 171.438 C 216.254 171.438 214.011 172.524 211.913 170.642 C 211.913 170.642 208.658 172.378 206.631 172.234 L 205.837 173.03 C 205.837 173.03 206.777 176.286 202.291 177.371 L 201.424 177.917 L 202.653 178.599 C 202.653 178.599 204.173 178.093 204.752 178.961 C 205.33 179.829 204.1 180.263 204.1 180.263 L 202.003 180.263 L 199.326 178.455 C 199.326 178.455 199.76 176.647 199.76 175.779 C 199.76 175.779 197.787 176.879 197.084 176.068 Z" style="fill: rgb(99, 99, 99);" transform="matrix(1, 0, 0, 1, 2.842170943040401e-14, 0)"/>
  <path d="M 195.982 174.521 C 195.982 174.521 191.859 179.656 190.701 180.886 C 190.701 180.886 190.557 181.321 191.136 180.886 C 191.714 180.452 196.561 176.546 196.705 175.749" style="fill: rgb(255, 135, 136);" transform="matrix(1, 0, 0, 1, 2.842170943040401e-14, 0)"/>
  <path d="M 209.452 168.473 L 208.296 170.136 C 208.296 170.136 210.756 172.378 211.19 172.378 C 211.624 172.378 211.841 173.826 210.756 173.537 L 206.704 171.434 C 206.704 171.434 205.258 170.86 205.981 168.473" style="fill: rgb(99, 99, 99);" transform="matrix(1, 0, 0, 1, 2.842170943040401e-14, 0)"/>
  <path d="M 213.721 167.17 C 213.721 167.17 212.201 163.481 214.878 163.192 C 217.555 162.903 214.878 166.085 214.878 166.085" style="fill: rgb(255, 135, 136);" transform="matrix(1, 0, 0, 1, 2.842170943040401e-14, 0)"/>
</svg>