<svg width="341" height="341" viewBox="0 0 341 341" fill="none" xmlns="http://www.w3.org/2000/svg">
<rect x="2" width="339" height="339" fill="#E67812"/>
<path d="M204 150.119L189.856 168.375L212.739 171.496L204 150.119ZM0.372789 123.163C5.53664 130.389 12.2385 141.314 20.2419 153.803C28.2145 166.244 37.4221 180.145 47.5017 193.147C57.5734 206.139 68.5707 218.307 80.1431 227.241C91.7021 236.165 104.013 242 116.671 242V238C105.252 238 93.7918 232.725 82.5876 224.075C71.3967 215.435 60.6382 203.563 50.663 190.696C40.6956 177.838 31.5651 164.059 23.6097 151.645C15.6853 139.279 8.86942 128.173 3.62721 120.837L0.372789 123.163ZM116.671 242C159.46 242 194.135 206.949 203.511 168.43L199.624 167.484C190.58 204.643 157.205 238 116.671 238V242Z" fill="black"/>
<path d="M87.6499 64.8696C87.0255 63.9584 85.7807 63.7258 84.8695 64.3501L70.0208 74.5243C69.1096 75.1487 68.877 76.3934 69.5014 77.3046C70.1257 78.2158 71.3705 78.4484 72.2817 77.824L85.4806 68.7803L94.5243 81.9793C95.1486 82.8905 96.3934 83.123 97.3046 82.4987C98.2158 81.8743 98.4484 80.6295 97.824 79.7183L87.6499 64.8696ZM36.966 339.367L87.966 66.3673L84.034 65.6327L33.034 338.633L36.966 339.367Z" fill="black"/>
<path d="M145.895 209.457C151.67 210.62 157.294 206.881 158.457 201.105C159.62 195.33 155.881 189.706 150.105 188.543C144.33 187.38 138.706 191.119 137.543 196.895C136.38 202.67 140.119 208.294 145.895 209.457ZM179.666 48.8928C179.054 47.9729 177.813 47.723 176.893 48.3345L161.903 58.2997C160.983 58.9113 160.733 60.1527 161.345 61.0725C161.956 61.9924 163.198 62.2423 164.117 61.6308L177.442 52.7728L186.3 66.097C186.911 67.0169 188.153 67.2668 189.073 66.6553C189.992 66.0438 190.242 64.8024 189.631 63.8825L179.666 48.8928ZM149.961 199.395L179.961 50.3948L176.039 49.6052L146.039 198.605L149.961 199.395Z" fill="black"/>
<path d="M249.586 217.573C255.425 218.354 260.791 214.253 261.573 208.414C262.354 202.575 258.253 197.209 252.414 196.427C246.575 195.646 241.209 199.747 240.427 205.586C239.646 211.425 243.747 216.791 249.586 217.573ZM273.589 48.7858C272.919 47.9081 271.663 47.7402 270.786 48.4108L256.483 59.3389C255.605 60.0095 255.437 61.2647 256.108 62.1424C256.778 63.0201 258.034 63.188 258.911 62.5174L271.625 52.8035L281.339 65.5172C282.01 66.3949 283.265 66.5628 284.142 65.8922C285.02 65.2216 285.188 63.9665 284.517 63.0888L273.589 48.7858ZM252.982 207.265L273.982 50.2651L270.018 49.7348L249.018 206.735L252.982 207.265Z" fill="black"/>
<path d="M320.941 152.518C320.675 151.446 319.59 150.793 318.518 151.059L301.049 155.397C299.977 155.663 299.323 156.748 299.59 157.82C299.856 158.892 300.941 159.545 302.013 159.279L317.541 155.423L321.397 170.951C321.663 172.023 322.748 172.677 323.82 172.41C324.892 172.144 325.545 171.059 325.279 169.987L320.941 152.518ZM208.713 340.032L320.713 154.032L317.287 151.968L205.287 337.968L208.713 340.032Z" fill="black"/>
<path d="M153.249 141.434C153.488 141.297 153.571 140.991 153.434 140.751L151.197 136.847C151.06 136.607 150.754 136.524 150.514 136.662C150.275 136.799 150.192 137.104 150.329 137.344L152.318 140.815L148.847 142.803C148.607 142.94 148.524 143.246 148.662 143.486C148.799 143.725 149.104 143.808 149.344 143.671L153.249 141.434ZM1.86898 100.483L4.77283 101.271L5.03486 100.306L2.13102 99.5175L1.86898 100.483ZM10.5805 102.848L16.3882 104.425L16.6503 103.46L10.8426 101.883L10.5805 102.848ZM22.1959 106.002L28.0036 107.579L28.2656 106.614L22.4579 105.037L22.1959 106.002ZM33.8113 109.156L39.619 110.733L39.881 109.767L34.0733 108.191L33.8113 109.156ZM45.4267 112.309L51.2344 113.886L51.4964 112.921L45.6887 111.344L45.4267 112.309ZM57.0421 115.463L62.8498 117.04L63.1118 116.075L57.3041 114.498L57.0421 115.463ZM68.6575 118.617L74.4651 120.194L74.7272 119.229L68.9195 117.652L68.6575 118.617ZM80.2728 121.771L86.0805 123.348L86.3426 122.383L80.5349 120.806L80.2728 121.771ZM91.8882 124.925L97.6959 126.502L97.958 125.537L92.1503 123.96L91.8882 124.925ZM103.504 128.079L109.311 129.656L109.573 128.691L103.766 127.114L103.504 128.079ZM115.119 131.233L120.927 132.809L121.189 131.844L115.381 130.267L115.119 131.233ZM126.734 134.386L132.542 135.963L132.804 134.998L126.996 133.421L126.734 134.386ZM138.35 137.54L144.157 139.117L144.42 138.152L138.612 136.575L138.35 137.54ZM149.965 140.694L152.869 141.483L153.131 140.517L150.227 139.729L149.965 140.694ZM153.497 141.868C153.976 141.593 154.142 140.982 153.868 140.503L149.394 132.694C149.119 132.215 148.508 132.049 148.029 132.323C147.50 132.598 147.384 133.209 147.658 133.688L151.635 140.629L144.694 144.606C144.215 144.881 144.049 145.492 144.323 145.971C144.598 146.45 145.209 146.616 145.688 146.342L153.497 141.868ZM1.73796 100.965L4.64181 101.754L5.16588 99.8234L2.26204 99.0349L1.73796 100.965ZM10.4495 103.33L16.2572 104.907L16.7813 102.977L10.9736 101.4L10.4495 103.33ZM22.0649 106.484L27.8726 108.061L28.3967 106.131L22.589 104.554L22.0649 106.484ZM33.6803 109.638L39.488 111.215L40.012 109.285L34.2043 107.708L33.6803 109.638ZM45.2957 112.792L51.1034 114.369L51.6274 112.439L45.8197 110.862L45.2957 112.792ZM56.911 115.946L62.7187 117.523L63.2428 115.593L57.4351 114.016L56.911 115.946ZM68.5264 119.1L74.3341 120.677L74.8582 118.746L69.0505 117.17L68.5264 119.1ZM80.1418 122.254L85.9495 123.83L86.4736 121.9L80.6659 120.323L80.1418 122.254ZM91.7572 125.407L97.5649 126.984L98.089 125.054L92.2813 123.477L91.7572 125.407ZM103.373 128.561L109.18 130.138L109.704 128.208L103.897 126.631L103.373 128.561ZM114.988 131.715L120.796 133.292L121.32 131.362L115.512 129.785L114.988 131.715ZM126.603 134.869L132.411 136.446L132.935 134.516L127.127 132.939L126.603 134.869ZM138.219 138.023L144.026 139.6L144.551 137.67L138.743 136.093L138.219 138.023ZM149.834 141.177L152.738 141.965L153.262 140.035L150.358 139.246L149.834 141.177Z" fill="black"/>
</svg>
